<svg width="129" height="135" viewBox="0 0 129 135" fill="none" xmlns="http://www.w3.org/2000/svg">
<path d="M110.549 92.8027C110.549 92.8027 110.166 92.9806 109.4 93.3363C108.634 93.6919 107.548 94.173 106.203 94.7271C105.492 94.8937 104.726 95.2494 103.818 95.4366C102.982 95.708 102.083 96.0318 100.98 96.2396C99.8769 96.4473 98.774 96.6551 97.6087 96.9152C96.3726 97.0911 95.0659 97.1828 93.7592 97.2744C91.0126 97.4259 88.0621 97.4613 84.6959 97.1278C81.4627 96.8262 77.955 96.3242 74.352 95.3279L73.0206 95.0095L71.6185 94.6069C70.749 94.3316 69.7463 94.0245 68.8768 93.7492C67.9448 93.5263 66.9964 93.0301 66.1268 92.7549C65.1866 92.3953 64.2464 92.0358 63.3062 91.6762C61.4175 90.8205 59.5289 89.9648 57.7027 89.0566L54.9198 87.5155C53.9714 87.0193 53.0229 86.5231 52.1994 85.9221C50.3568 84.7406 48.5223 83.6957 46.8671 82.3569C46.0435 81.7559 45.1493 81.0706 44.2634 80.522C43.4398 79.9209 42.6081 79.1832 41.7139 78.4979C40.8821 77.7602 40.0586 77.1591 39.2975 76.5056C38.4658 75.7679 37.7671 75.062 36.9354 74.3243L35.7585 73.302L35.4133 73.0174L35.2719 72.8489C35.3426 72.9331 35.2719 72.8489 35.2719 72.8489L35.2012 72.7646L34.644 72.2272C33.8747 71.4371 33.0429 70.6994 32.4068 69.9411C29.6748 67.0651 27.1219 63.8952 25.0392 60.9051C22.8858 57.8307 21.0693 54.9042 19.7229 52.1575C18.3059 49.3266 17.1009 46.7484 16.4367 44.4343C16.2871 44.1291 16.2707 43.8557 16.1211 43.5505C16.0422 43.3296 15.955 42.972 15.8761 42.7511C15.7101 42.1725 15.6147 41.6783 15.3862 41.1521C15.1955 40.1636 14.9423 39.2274 14.7598 38.3755C14.7104 37.5555 14.5361 36.8403 14.4243 36.0726C14.3207 35.4417 14.3503 34.8426 14.2549 34.3483C14.1349 33.444 14.102 32.8973 14.102 32.8973L14.0937 32.7606C14.0526 32.0772 13.4164 31.3189 12.6883 31.2122C12.1557 31.0848 11.6478 31.3675 11.5476 31.8823C11.5476 31.8823 11.4474 32.3972 11.2387 33.2903C11.03 34.1833 10.9167 35.5707 10.8362 37.5047C10.8938 38.4614 10.889 39.4706 11.0255 40.6482C11.1291 41.2792 11.162 41.8259 11.2656 42.4568C11.282 42.7302 11.3691 43.0878 11.4563 43.4454C11.5434 43.803 11.5599 44.0763 11.647 44.434C12.2027 47.1263 13.245 50.2718 14.6868 53.5127C16.3159 56.5964 18.2277 60.0172 20.6014 63.481C23.0375 66.8924 25.8024 70.3151 29.0834 73.5917C29.9234 74.4661 30.6845 75.1196 31.4538 75.9097L32.011 76.4471L32.2231 76.6999L32.3645 76.8684L32.7721 77.1006L34.0197 78.2072C34.8515 78.9449 35.8164 79.7145 36.6481 80.4522C37.5423 81.1375 38.4366 81.8228 39.4014 82.5923C40.2957 83.2777 41.2606 84.0472 42.2172 84.6801C43.1739 85.313 44.1306 85.9459 45.1497 86.5263C47.063 87.7921 49.093 88.8164 50.9981 89.9455C52.0173 90.5259 53.0282 90.9697 53.9766 91.4659L56.9468 92.8497C58.9686 93.7373 60.9822 94.4882 62.9958 95.2391C63.9984 95.5462 65.0011 95.8534 65.9413 96.2129C66.944 96.52 67.8842 96.8795 68.8786 97.05C69.8106 97.2728 70.8133 97.58 71.7453 97.8028L73.1474 98.2055L74.5412 98.4714C76.397 98.7804 78.2609 99.2262 80.046 99.451C81.8311 99.6757 83.5537 99.953 85.2598 99.9568C88.6179 100.154 91.7639 100.098 94.5023 99.8095C95.8715 99.6654 97.2406 99.5214 98.4767 99.3455C99.642 99.0853 100.878 98.9094 101.91 98.6174C103.013 98.4096 104.045 98.1176 104.882 97.8462C105.781 97.5224 106.688 97.3352 107.463 97.1162C108.94 96.5939 109.956 96.0286 110.73 95.8096C111.496 95.4539 111.95 95.3603 111.95 95.3603C112.528 95.1619 112.675 94.3213 112.242 93.6791C111.997 92.8796 111.19 92.5519 110.549 92.8027C110.612 92.7503 110.612 92.7503 110.549 92.8027Z" fill="#1C1E2B"/>
<path d="M116.668 102.888C116.581 102.53 116.556 102.12 116.531 101.71L116.474 100.753C116.433 100.07 116.525 99.4185 116.617 98.767C116.709 98.1155 116.871 97.5482 116.963 96.8966C117.126 96.3294 117.351 95.7097 117.585 95.2266C117.88 94.6912 118.114 94.2082 118.41 93.6727C118.706 93.1373 119.143 92.7703 119.509 92.3191C119.876 91.868 120.313 91.501 120.75 91.1341C121.187 90.7672 121.695 90.4845 122.07 90.17C122.953 89.5728 123.066 88.1854 122.209 87.0377C121.777 86.3955 121.095 85.9629 120.429 85.8038L119.834 85.7288L116.177 84.9216C114.979 84.6351 113.718 84.401 112.52 84.1145C111.259 83.8803 110.069 83.7305 108.887 83.7173C108.23 83.6948 107.705 83.7041 107.119 83.7659C106.861 83.8389 106.532 83.8276 106.141 83.8688C106.078 83.9212 105.945 83.8894 106.078 83.9212C106.149 84.0054 106.282 84.0373 106.635 84.4586C106.847 84.7113 106.997 85.0165 107.013 85.2899C107.109 85.7841 107.022 85.4265 107.092 85.5108L106.967 85.6156C106.984 85.889 106.867 86.1305 106.813 86.3196C106.634 86.6135 106.438 86.6341 106.243 86.6547C105.914 86.6434 105.781 86.6116 105.444 86.4637C105.24 86.3476 104.974 86.2839 104.604 85.5893C104.525 85.3683 104.517 85.2317 104.438 85.0107C104.43 84.8741 104.421 84.7374 104.484 84.685C104.476 84.5483 104.538 84.4959 104.6 84.4434C104.663 84.391 104.663 84.391 104.725 84.3386C104.359 84.7898 104.408 85.6098 105.036 86.2315C105.593 86.7689 106.392 86.9599 106.821 86.4563C106.884 86.4038 106.946 86.3514 106.946 86.3514C107.009 86.299 107.009 86.299 107.063 86.1099C107.055 85.9732 107.117 85.9208 107.101 85.6475C107.092 85.5108 107.076 85.2374 106.935 85.0689C106.494 84.29 106.228 84.2264 105.953 84.026C105.546 83.7938 105.35 83.8144 104.888 83.7713C104.692 83.7919 104.434 83.8649 104.193 84.2113C104.068 84.3161 104.022 84.6419 104.038 84.9152L104.047 85.0519C104.055 85.1886 103.968 84.831 104.063 85.3252C104.15 85.6828 104.308 86.1247 104.591 86.4617C105.086 87.0515 105.422 87.1995 105.626 87.3156C105.963 87.4635 105.901 87.5159 106.034 87.5477C106.379 87.8323 106.716 87.9803 106.991 88.1806C107.673 88.6132 108.347 88.909 109.021 89.2049C110.369 89.7966 111.708 90.2517 113.031 90.4334C114.363 90.7517 115.678 90.7967 116.93 90.8942C118.245 90.9392 119.489 90.9 120.796 90.8083L118.357 86.2511C117.998 86.839 117.569 87.3426 117.282 88.0147L116.815 88.9807L116.411 89.8944L116.006 90.808L115.673 91.8059L115.339 92.8038L115.006 93.8017C114.851 94.5056 114.697 95.2096 114.542 95.9135C114.388 96.6175 114.296 97.269 114.212 98.0573C114.191 98.793 114.036 99.497 114.015 100.233L114.018 101.379C113.972 101.704 113.997 102.114 113.951 102.44C113.93 103.176 114.433 103.902 115.169 104.146C115.905 104.389 116.476 104.054 116.497 103.318C116.676 103.025 116.668 102.888 116.668 102.888Z" fill="#1C1E2B"/>
</svg>
