<svg width="47" height="39" viewBox="0 0 47 39" fill="none" xmlns="http://www.w3.org/2000/svg">
<path fill-rule="evenodd" clip-rule="evenodd" d="M11.866 1.45246C19.6074 0.779518 27.3926 0.779517 35.134 1.45246L38.8467 1.7752C42.3991 2.08401 45.277 4.7873 45.8073 8.31351C46.9225 15.7296 46.9225 23.2708 45.8073 30.6868C45.7097 31.3356 45.5327 31.9565 45.2866 32.5397C45.1235 32.9265 44.6201 32.9851 44.3377 32.6746L33.4684 20.7183C32.9773 20.1781 32.2137 19.9785 31.5211 20.2094L25.2995 22.2833L16.2738 12.1294C15.9365 11.7499 15.4575 11.5263 14.95 11.5114C14.4424 11.4965 13.9511 11.6916 13.5921 12.0506L1.51152 24.1312C1.13972 24.503 0.505616 24.2663 0.475972 23.7414C0.185309 18.5939 0.424227 13.424 1.19272 8.31351C1.72298 4.7873 4.60088 2.08401 8.15334 1.7752L11.866 1.45246ZM28.4166 12.1252C28.4166 10.0886 30.0676 8.43769 32.1041 8.43769C34.1407 8.43769 35.7916 10.0886 35.7916 12.1252C35.7916 14.1617 34.1407 15.8127 32.1041 15.8127C30.0676 15.8127 28.4166 14.1617 28.4166 12.1252Z" fill="#FFCE00"/>
<path d="M1.27992 29.5777C1.14385 29.7138 1.0792 29.9058 1.10631 30.0963C1.13433 30.2932 1.16313 30.4901 1.19272 30.6868C1.72298 34.2131 4.60088 36.9164 8.15334 37.2252L11.866 37.5479C19.6074 38.2208 27.3926 38.2208 35.134 37.5479L38.8467 37.2252C39.8905 37.1344 40.8762 36.8369 41.7611 36.3725C42.0965 36.1966 42.1529 35.7532 41.8982 35.4729L31.8171 24.3837C31.6534 24.2036 31.3988 24.1371 31.168 24.2141L25.3122 26.166C24.6125 26.3992 23.8411 26.193 23.3511 25.6418L15.2499 16.5279C15.015 16.2636 14.606 16.2516 14.356 16.5016L1.27992 29.5777Z" fill="#FFCE00"/>
</svg>
