<svg width="16" height="16" viewBox="0 0 16 16" fill="none" xmlns="http://www.w3.org/2000/svg">
<path d="M11.6866 7.55639C11.4781 5.85545 10.1357 4.51639 8.43422 4.31223C8.28772 4.29552 8.1404 4.28714 7.99294 4.28711C6.48925 4.28942 5.13532 5.19817 4.5635 6.58889C3.99169 7.97961 4.31485 9.57792 5.38203 10.6373C5.94953 11.1807 6.27453 11.9297 6.28381 12.7154V13.1445H9.71237V12.7132C9.71496 11.9423 10.0286 11.2052 10.5821 10.6687C11.4181 9.86201 11.8271 8.70973 11.6866 7.55652V7.55639H11.6866Z" fill="#FC8B99"/>
<path d="M7.99913 16.0001C8.36225 15.9997 8.68585 15.7709 8.80732 15.4287H7.19098C7.31241 15.7709 7.63601 15.9997 7.99913 16.0001Z" fill="#FC8B99"/>
<path d="M6.5719 14.57C6.57211 14.7278 6.6999 14.8555 6.85761 14.8558H9.14332C9.30104 14.8555 9.42882 14.7278 9.42904 14.57V13.7129H6.5719V14.57Z" fill="#FC8B99"/>
<path d="M7.99966 2.57144C8.31525 2.57144 8.57109 2.31559 8.57109 2V0.571437C8.57109 0.255844 8.31525 0 7.99966 0C7.68406 0 7.42822 0.255844 7.42822 0.571437V2C7.42822 2.31559 7.68406 2.57144 7.99966 2.57144Z" fill="#FC8B99"/>
<path d="M3.17747 3.98563C3.40359 4.20159 3.75953 4.20159 3.98566 3.98563C4.09284 3.87847 4.15306 3.73309 4.15306 3.58153C4.15306 3.42997 4.09284 3.28459 3.98566 3.17744L2.97544 2.16741C2.86831 2.06022 2.72297 2 2.57144 2C2.41991 2 2.27456 2.06022 2.16741 2.16741C2.06022 2.27453 2 2.41988 2 2.57144C2 2.723 2.06022 2.86831 2.16741 2.97547L3.17747 3.98563Z" fill="#FC8B99"/>
<path d="M2.57144 8.00014C2.57144 7.68455 2.31559 7.42871 2 7.42871H0.571437C0.255969 7.42902 0.0003125 7.68468 0 8.00014C0.0003125 8.31561 0.255969 8.57127 0.571437 8.57158H2C2.31559 8.57158 2.57144 8.31574 2.57144 8.00014Z" fill="#FC8B99"/>
<path d="M3.73063 11.8661C3.53313 11.8133 3.32251 11.87 3.17823 12.0149L2.16819 13.025C2.061 13.1322 2.00079 13.2775 2.00079 13.4291C2.00079 13.5806 2.061 13.7259 2.16819 13.8331C2.39426 14.0491 2.75016 14.0491 2.97623 13.8331L3.98642 12.8231C4.13123 12.6788 4.18798 12.4682 4.1352 12.2707C4.08242 12.0732 3.92813 11.9189 3.73063 11.8661Z" fill="#FC8B99"/>
<path d="M12.8228 12.0148C12.6785 11.87 12.4679 11.8133 12.2704 11.8661C12.0729 11.9188 11.9186 12.0731 11.8659 12.2706C11.8131 12.4681 11.8698 12.6787 12.0146 12.823L13.0248 13.833C13.2509 14.049 13.6068 14.049 13.8329 13.833C13.9401 13.7259 14.0003 13.5806 14.0003 13.429C14.0003 13.2774 13.9401 13.1321 13.8329 13.025L12.8228 12.0148Z" fill="#FC8B99"/>
<path d="M15.4282 7.42871H13.9996C13.684 7.42871 13.4282 7.68455 13.4282 8.00014C13.4282 8.31574 13.684 8.57158 13.9996 8.57158H15.4282C15.7438 8.57158 15.9996 8.31574 15.9996 8.00014C15.9996 7.68455 15.7438 7.42871 15.4282 7.42871Z" fill="#FC8B99"/>
<path d="M12.8223 3.98561L13.8323 2.97543C13.9766 2.83108 14.033 2.62071 13.9802 2.42352C13.9273 2.22633 13.7733 2.07233 13.5761 2.01949C13.3789 1.96664 13.1686 2.02302 13.0242 2.16736L12.014 3.17739C11.9068 3.28455 11.8466 3.42993 11.8466 3.58149C11.8466 3.73305 11.9068 3.87843 12.014 3.98558C12.2402 4.20158 12.5962 4.20158 12.8223 3.98561Z" fill="#FC8B99"/>
</svg>
