<svg width="29" height="42" viewBox="0 0 29 42" fill="none" xmlns="http://www.w3.org/2000/svg">
<path d="M26.9286 42C26.565 42.0001 26.2078 41.9032 25.8929 41.719L14.5 35.0581L3.10714 41.719C2.79217 41.9031 2.43499 41.9999 2.07145 41.9997C1.70791 41.9996 1.3508 41.9025 1.03598 41.7182C0.721164 41.5339 0.45971 41.2688 0.277868 40.9497C0.0960268 40.6306 0.000197129 40.2686 0 39.9V6.3C0.00179841 4.6297 0.657094 3.02833 1.82211 1.84724C2.98712 0.666157 4.56671 0.00182321 6.21429 0H22.7857C24.4333 0.00182321 26.0129 0.666157 27.1779 1.84724C28.3429 3.02833 28.9982 4.6297 29 6.3V39.9C28.9996 40.4568 28.7812 40.9907 28.3929 41.3845C28.0045 41.7782 27.4778 41.9996 26.9286 42Z" fill="#613EEA"/>
</svg>
