<svg width="32" height="32" viewBox="0 0 32 32" fill="none" xmlns="http://www.w3.org/2000/svg">
<path fill-rule="evenodd" clip-rule="evenodd" d="M23.9909 9.39867C23.9909 8.66667 23.3989 8.07067 22.6655 8.06667L12.0082 8H12.0002C11.2669 8 10.6722 8.592 10.6669 9.32533C10.6615 10.0613 11.2549 10.6627 11.9922 10.6667L19.4029 10.7133L8.39088 21.724C7.86954 22.2453 7.86954 23.0893 8.39088 23.6093C8.65088 23.8707 8.99221 24 9.33354 24C9.67488 24 10.0162 23.8707 10.2762 23.6093L21.3269 12.5587L21.3335 20.0013C21.3335 20.7373 21.9309 21.3333 22.6669 21.3333H22.6682C23.4042 21.3333 24.0002 20.7347 24.0002 19.9987L23.9909 9.39867Z" fill="#444854"/>
<mask id="mask0_403_2165" style="mask-type:alpha" maskUnits="userSpaceOnUse" x="7" y="8" width="18" height="16">
<path fill-rule="evenodd" clip-rule="evenodd" d="M23.9909 9.39867C23.9909 8.66667 23.3989 8.07067 22.6655 8.06667L12.0082 8H12.0002C11.2669 8 10.6722 8.592 10.6669 9.32533C10.6615 10.0613 11.2549 10.6627 11.9922 10.6667L19.4029 10.7133L8.39088 21.724C7.86954 22.2453 7.86954 23.0893 8.39088 23.6093C8.65088 23.8707 8.99221 24 9.33354 24C9.67488 24 10.0162 23.8707 10.2762 23.6093L21.3269 12.5587L21.3335 20.0013C21.3335 20.7373 21.9309 21.3333 22.6669 21.3333H22.6682C23.4042 21.3333 24.0002 20.7347 24.0002 19.9987L23.9909 9.39867Z" fill="white"/>
</mask>
<g mask="url(#mask0_403_2165)">
<rect width="32" height="32" fill="#444854"/>
</g>
</svg>
