<svg width="32" height="32" viewBox="0 0 32 32" fill="none" xmlns="http://www.w3.org/2000/svg">
<circle cx="16" cy="16" r="16" fill="#F9FAFC"/>
<path d="M21.1397 19.8081L22.0247 20.6528V20.6796H17.5598V20.6528L18.4582 19.8081C18.552 19.7276 18.6057 19.6069 18.5788 19.4863V14.0561C18.5788 13.8281 18.5788 13.5198 18.6191 13.2516L15.6023 20.8002H15.5621L12.4514 13.855C12.3844 13.6807 12.3576 13.6672 12.3174 13.56V18.1053C12.2771 18.4136 12.3308 18.722 12.4648 18.9902L13.7118 20.6528V20.6796H10.4V20.6528L11.647 18.9902C11.781 18.722 11.8347 18.4136 11.7944 18.1053V13.0773C11.8213 12.836 11.7408 12.5812 11.5933 12.3935L10.7084 11.227V11.2002H13.8861L16.5542 17.0729L18.9006 11.2002H22.0113V11.227L21.1397 12.2058C21.0325 12.2862 20.9789 12.4203 21.0057 12.541V19.4729C20.9789 19.6069 21.0325 19.741 21.1397 19.8081Z" fill="#9DA8B6"/>
</svg>
