<svg width="32" height="32" viewBox="0 0 32 32" fill="none" xmlns="http://www.w3.org/2000/svg">
<circle cx="16" cy="16" r="16" fill="#F9FAFC"/>
<g clip-path="url(#clip0_403_2177)">
<path d="M18.9064 9.60227L17.2465 9.59961C15.3817 9.59961 14.1766 10.836 14.1766 12.7497V14.2021H12.5077C12.3635 14.2021 12.2467 14.319 12.2467 14.4632V16.5676C12.2467 16.7118 12.3636 16.8286 12.5077 16.8286H14.1766V22.1386C14.1766 22.2828 14.2934 22.3996 14.4376 22.3996H16.6151C16.7593 22.3996 16.8761 22.2827 16.8761 22.1386V16.8286H18.8275C18.9717 16.8286 19.0884 16.7118 19.0884 16.5676L19.0892 14.4632C19.0892 14.394 19.0617 14.3277 19.0128 14.2787C18.9639 14.2297 18.8974 14.2021 18.8281 14.2021H16.8761V12.9709C16.8761 12.3791 17.0171 12.0787 17.788 12.0787L18.9061 12.0783C19.0502 12.0783 19.167 11.9614 19.167 11.8173V9.86327C19.167 9.71932 19.0504 9.60254 18.9064 9.60227Z" fill="#9DA8B6"/>
</g>
<defs>
<clipPath id="clip0_403_2177">
<rect width="12.8001" height="12.8" fill="white" transform="translate(9.30908 9.59961)"/>
</clipPath>
</defs>
</svg>
