<svg width="32" height="32" viewBox="0 0 32 32" fill="none" xmlns="http://www.w3.org/2000/svg">
<circle cx="16" cy="16" r="16" fill="#F9FAFC"/>
<path d="M15.8985 14.5794C15.5896 14.5794 15.2876 14.671 15.0307 14.8426C14.7738 15.0143 14.5736 15.2582 14.4554 15.5437C14.3371 15.8291 14.3062 16.1432 14.3665 16.4462C14.4267 16.7492 14.5755 17.0275 14.794 17.246C15.0124 17.4644 15.2908 17.6132 15.5938 17.6735C15.8968 17.7338 16.2109 17.7028 16.4963 17.5846C16.7817 17.4664 17.0257 17.2662 17.1973 17.0093C17.369 16.7524 17.4606 16.4504 17.4606 16.1414C17.4606 15.9363 17.4202 15.7332 17.3417 15.5437C17.2632 15.3541 17.1481 15.1819 17.0031 15.0369C16.858 14.8918 16.6858 14.7768 16.4963 14.6983C16.3068 14.6198 16.1037 14.5794 15.8985 14.5794ZM22.1531 13.0362C22.1498 12.5498 22.0602 12.0678 21.8886 11.6127C21.7621 11.2797 21.5665 10.9772 21.3146 10.7253C21.0627 10.4734 20.7603 10.2778 20.4273 10.1514C19.9721 9.97975 19.4902 9.89018 19.0038 9.88686C18.1912 9.84277 17.9519 9.84277 15.8985 9.84277C13.8452 9.84277 13.6058 9.84277 12.7933 9.88686C12.3069 9.89018 11.8249 9.97975 11.3698 10.1514C11.0367 10.2778 10.7343 10.4734 10.4824 10.7253C10.2305 10.9772 10.0349 11.2797 9.90849 11.6127C9.73683 12.0678 9.64726 12.5498 9.64394 13.0362C9.59985 13.8487 9.59985 14.0881 9.59985 16.1414C9.59985 18.1948 9.59985 18.4342 9.64394 19.2467C9.65072 19.7348 9.74017 20.2182 9.90849 20.6765C10.0344 21.008 10.2298 21.3087 10.4817 21.5583C10.7325 21.8117 11.0356 22.0073 11.3698 22.1315C11.8249 22.3031 12.3069 22.3927 12.7933 22.396C13.6058 22.4401 13.8452 22.4401 15.8985 22.4401C17.9519 22.4401 18.1912 22.4401 19.0038 22.396C19.4902 22.3927 19.9721 22.3031 20.4273 22.1315C20.7615 22.0073 21.0646 21.8117 21.3154 21.5583C21.5672 21.3087 21.7627 21.008 21.8886 20.6765C22.06 20.2191 22.1496 19.7351 22.1531 19.2467C22.1972 18.4342 22.1972 18.1948 22.1972 16.1414C22.1972 14.0881 22.1972 13.8487 22.1531 13.0362ZM20.5532 18.0751C20.533 18.4638 20.4501 18.8467 20.3076 19.2089C20.1853 19.511 20.0035 19.7855 19.7731 20.016C19.5426 20.2464 19.2681 20.4282 18.966 20.5505C18.6003 20.685 18.2153 20.7595 17.8259 20.771C17.3283 20.771 17.196 20.771 15.8985 20.771C14.601 20.771 14.4687 20.771 13.9711 20.771C13.5817 20.7595 13.1967 20.685 12.8311 20.5505C12.5187 20.4344 12.2366 20.2493 12.0059 20.0088C11.7777 19.7829 11.6015 19.5099 11.4895 19.2089C11.3544 18.8436 11.282 18.4582 11.2753 18.0688C11.2753 17.5712 11.2753 17.439 11.2753 16.1414C11.2753 14.8439 11.2753 14.7116 11.2753 14.214C11.282 13.8247 11.3544 13.4392 11.4895 13.074C11.6055 12.7616 11.7907 12.4796 12.0311 12.2489C12.2581 12.0219 12.5308 11.8458 12.8311 11.7324C13.1967 11.5978 13.5817 11.5234 13.9711 11.5119C14.4687 11.5119 14.601 11.5119 15.8985 11.5119C17.196 11.5119 17.3283 11.5119 17.8259 11.5119C18.2153 11.5234 18.6003 11.5978 18.966 11.7324C19.2783 11.8484 19.5604 12.0336 19.7911 12.2741C20.0193 12.5 20.1956 12.773 20.3076 13.074C20.4421 13.4396 20.5166 13.8246 20.528 14.214C20.528 14.7116 20.528 14.8439 20.528 16.1414C20.528 17.439 20.5721 17.5712 20.5532 18.0688V18.0751ZM19.5454 13.3889C19.4705 13.1855 19.3522 13.0007 19.1989 12.8474C19.0456 12.694 18.8608 12.5758 18.6573 12.5008C18.378 12.404 18.0837 12.3571 17.7881 12.3622C17.2968 12.3622 17.1583 12.3622 15.8985 12.3622C14.6388 12.3622 14.5002 12.3622 14.0089 12.3622C13.7118 12.3651 13.4175 12.4206 13.1397 12.526C12.9394 12.5976 12.7566 12.711 12.6034 12.8587C12.4503 13.0064 12.3304 13.185 12.2516 13.3826C12.1601 13.6631 12.1154 13.9568 12.1193 14.2518C12.1193 14.7431 12.1193 14.8817 12.1193 16.1414C12.1193 17.4012 12.1193 17.5397 12.1193 18.031C12.1256 18.3278 12.1809 18.6215 12.2831 18.9003C12.3581 19.1037 12.4763 19.2885 12.6296 19.4418C12.783 19.5951 12.9677 19.7134 13.1712 19.7884C13.4399 19.8872 13.7227 19.9425 14.0089 19.9521C14.5002 19.9521 14.6388 19.9521 15.8985 19.9521C17.1583 19.9521 17.2968 19.9521 17.7881 19.9521C18.0852 19.9492 18.3795 19.8938 18.6573 19.7884C18.8608 19.7134 19.0456 19.5951 19.1989 19.4418C19.3522 19.2885 19.4705 19.1037 19.5454 18.9003C19.6509 18.6224 19.7063 18.3282 19.7092 18.031C19.7092 17.5397 19.7092 17.4012 19.7092 16.1414C19.7092 14.8817 19.7092 14.7431 19.7092 14.2518C19.7094 13.9544 19.6538 13.6596 19.5454 13.3826V13.3889ZM15.8985 18.5475C15.5828 18.5475 15.2703 18.4853 14.9787 18.3643C14.6871 18.2433 14.4223 18.0659 14.1994 17.8424C13.9765 17.6189 13.7998 17.3536 13.6796 17.0617C13.5594 16.7699 13.4979 16.4571 13.4987 16.1414C13.4987 15.6653 13.64 15.1999 13.9047 14.804C14.1693 14.4082 14.5455 14.0998 14.9855 13.9179C15.4255 13.736 15.9096 13.6887 16.3765 13.7821C16.8435 13.8754 17.2722 14.1052 17.6084 14.4423C17.9447 14.7794 18.1733 15.2088 18.2654 15.6759C18.3576 16.1431 18.309 16.627 18.1259 17.0666C17.9429 17.5061 17.6335 17.8815 17.237 18.1451C16.8405 18.4087 16.3747 18.5488 15.8985 18.5475ZM18.418 14.2077C18.2788 14.193 18.1499 14.1273 18.0562 14.0232C17.9626 13.9191 17.9108 13.784 17.9108 13.644C17.9108 13.504 17.9626 13.3689 18.0562 13.2649C18.1499 13.1608 18.2788 13.095 18.418 13.0803C18.5572 13.095 18.6861 13.1608 18.7797 13.2649C18.8734 13.3689 18.9252 13.504 18.9252 13.644C18.9252 13.784 18.8734 13.9191 18.7797 14.0232C18.6861 14.1273 18.5572 14.193 18.418 14.2077Z" fill="#9DA8B6"/>
</svg>
