<svg width="16" height="14" viewBox="0 0 16 14" fill="none" xmlns="http://www.w3.org/2000/svg">
<path fill-rule="evenodd" clip-rule="evenodd" d="M11.7047 0.25C12.7104 0.25 13.6779 0.6475 14.3897 1.36075C15.1022 2.0725 15.5004 3.0325 15.5004 4.0375V9.9625C15.5004 12.055 13.7979 13.75 11.7047 13.75H4.29543C2.20218 13.75 0.500427 12.055 0.500427 9.9625V4.0375C0.500427 1.945 2.19468 0.25 4.29543 0.25H11.7047ZM12.8979 5.15492L12.9579 5.09492C13.1372 4.87742 13.1372 4.56242 12.9497 4.34492C12.8454 4.23317 12.7022 4.16492 12.5529 4.14992C12.3954 4.14167 12.2454 4.19492 12.1322 4.29992L8.75045 6.99992C8.31544 7.36067 7.69219 7.36067 7.25044 6.99992L3.87544 4.29992C3.64219 4.12742 3.31969 4.14992 3.12544 4.35242C2.92294 4.55492 2.90044 4.87742 3.07219 5.10242L3.17044 5.19992L6.58294 7.86242C7.00294 8.19242 7.5122 8.37242 8.04544 8.37242C8.5772 8.37242 9.09544 8.19242 9.51469 7.86242L12.8979 5.15492Z" fill="white"/>
</svg>
