<svg width="32" height="32" viewBox="0 0 32 32" fill="none" xmlns="http://www.w3.org/2000/svg">
<circle cx="16" cy="16" r="16" fill="#F9FAFC"/>
<g clip-path="url(#clip0_403_2185)">
<path d="M22.4149 13.3694C22.2607 12.7961 21.8087 12.3443 21.2355 12.1899C20.1884 11.9033 15.9996 11.9033 15.9996 11.9033C15.9996 11.9033 11.811 11.9033 10.7638 12.179C10.2017 12.3332 9.73866 12.7962 9.58439 13.3694C9.30884 14.4165 9.30884 16.588 9.30884 16.588C9.30884 16.588 9.30884 18.7705 9.58439 19.8067C9.73876 20.3798 10.1906 20.8318 10.7639 20.9862C11.822 21.2728 15.9997 21.2728 15.9997 21.2728C15.9997 21.2728 20.1884 21.2728 21.2355 20.9971C21.8088 20.8428 22.2607 20.3909 22.415 19.8177C22.6906 18.7705 22.6906 16.5991 22.6906 16.5991C22.6906 16.5991 22.7016 14.4165 22.4149 13.3694Z" fill="#9DA8B6"/>
<path d="M14.666 18.5944L18.1492 16.5882L14.666 14.582V18.5944Z" fill="white"/>
</g>
<defs>
<clipPath id="clip0_403_2185">
<rect width="13.3818" height="13.3818" fill="white" transform="translate(9.30884 9.89062)"/>
</clipPath>
</defs>
</svg>
