<svg width="32" height="32" viewBox="0 0 32 32" fill="none" xmlns="http://www.w3.org/2000/svg">
<circle cx="16" cy="16" r="16" fill="#F9FAFC"/>
<g clip-path="url(#clip0_403_2171)">
<path d="M22.4001 12.031C21.9241 12.2398 21.4169 12.3782 20.8881 12.4454C21.4321 12.1206 21.8473 11.6102 22.0425 10.995C21.5353 11.2974 20.9753 11.511 20.3785 11.6302C19.8969 11.1174 19.2105 10.7998 18.4617 10.7998C17.0089 10.7998 15.8393 11.979 15.8393 13.4246C15.8393 13.6326 15.8569 13.8326 15.9001 14.023C13.7185 13.9166 11.7881 12.871 10.4913 11.2782C10.2649 11.671 10.1321 12.1206 10.1321 12.6046C10.1321 13.5134 10.6001 14.319 11.2977 14.7854C10.8761 14.7774 10.4625 14.655 10.1121 14.4622C10.1121 14.4702 10.1121 14.4806 10.1121 14.491C10.1121 15.7662 11.0217 16.8254 12.2145 17.0694C12.0009 17.1278 11.7681 17.1558 11.5265 17.1558C11.3585 17.1558 11.1889 17.1462 11.0297 17.111C11.3697 18.1502 12.3345 18.9142 13.4817 18.939C12.5889 19.6374 11.4553 20.0582 10.2281 20.0582C10.0129 20.0582 9.8065 20.0486 9.6001 20.0222C10.7625 20.7718 12.1401 21.1998 13.6257 21.1998C18.4545 21.1998 21.0945 17.1998 21.0945 13.7326C21.0945 13.6166 21.0905 13.5046 21.0849 13.3934C21.6057 13.0238 22.0433 12.5622 22.4001 12.031Z" fill="#9DA8B6"/>
</g>
<defs>
<clipPath id="clip0_403_2171">
<rect width="12.8" height="12.8" fill="white" transform="translate(9.6001 9.59961)"/>
</clipPath>
</defs>
</svg>
